<?xml version="1.0" encoding="UTF-8"?>
<svg xmlns="http://www.w3.org/2000/svg" viewBox="0 0 282.31 410.07">
  <defs>
    <style>
      .cls-1 {
        fill: #fbfcfc;
        stroke: #fbfcfc;
        stroke-width: .28px;
      }

      .cls-1, .cls-2, .cls-3, .cls-4, .cls-5, .cls-6, .cls-7, .cls-8, .cls-9, .cls-10, .cls-11, .cls-12 {
        stroke-miterlimit: 10;
      }

      .cls-2 {
        stroke: #fcf4e3;
      }

      .cls-2, .cls-13 {
        fill: #fcf4e3;
      }

      .cls-2, .cls-5 {
        stroke-width: 1.02px;
      }

      .cls-14 {
        fill: #f79b83;
      }

      .cls-15 {
        fill: #f8a88f;
      }

      .cls-16 {
        fill: #f47963;
      }

      .cls-17, .cls-11 {
        fill: #f47b5d;
      }

      .cls-18 {
        fill: #fce0ec;
      }

      .cls-19 {
        fill: #f04b27;
      }

      .cls-20 {
        fill: #fff;
      }

      .cls-21 {
        fill: #f15b4e;
      }

      .cls-22 {
        fill: #faf9f4;
      }

      .cls-23 {
        fill: #8a8633;
      }

      .cls-24 {
        fill: #d24c28;
      }

      .cls-25 {
        fill: #132113;
      }

      .cls-26 {
        fill: #223766;
      }

      .cls-27 {
        fill: #3e84c2;
      }

      .cls-28 {
        fill: #8985c0;
      }

      .cls-29 {
        fill: #8885c0;
      }

      .cls-30 {
        fill: #516da6;
      }

      .cls-31 {
        opacity: .3;
      }

      .cls-31, .cls-32 {
        mix-blend-mode: soft-light;
      }

      .cls-31, .cls-32, .cls-4 {
        fill: #042539;
      }

      .cls-3 {
        stroke-width: .43px;
      }

      .cls-3, .cls-4, .cls-6 {
        stroke: #042539;
      }

      .cls-3, .cls-5, .cls-6, .cls-7, .cls-8, .cls-9, .cls-10, .cls-12 {
        fill: none;
      }

      .cls-32 {
        opacity: .82;
      }

      .cls-4 {
        stroke-width: 1.56px;
      }

      .cls-5 {
        stroke: #132113;
      }

      .cls-6 {
        stroke-width: .51px;
      }

      .cls-7 {
        stroke: #58bed1;
        stroke-width: .15px;
      }

      .cls-33 {
        isolation: isolate;
      }

      .cls-8 {
        stroke: #fff;
      }

      .cls-8, .cls-9, .cls-10 {
        stroke-width: .68px;
      }

      .cls-9, .cls-12 {
        stroke: #faf9f4;
      }

      .cls-10 {
        stroke: #010101;
      }

      .cls-34 {
        fill: #133055;
        opacity: .38;
      }

      .cls-11 {
        stroke: #f47b5d;
        stroke-width: 1.43px;
      }

      .cls-12 {
        stroke-width: .5px;
      }
    </style>
  </defs>
  <g class="cls-33">
    <g id="Layer_2" data-name="Layer 2">
      <g id="Layer_1-2" data-name="Layer 1">
        <g>
          <path class="cls-15" d="M15.22,119.15c1.77,1.87-8.87,86.9-8.87,86.9,0,0-4.21,13.85,10.31,28.38l11.86-113.87-13.3-1.41Z"/>
          <path class="cls-18" d="M30.3,81.91s-12.86,.89-15.52,19.95l-2.66,19.07,13.3,1.33,4.88-40.35Z"/>
        </g>
        <g>
          <g>
            <polygon class="cls-15" points="80.66 380.99 81.79 401.61 121.09 400.33 98.7 390.45 96.47 380.06 80.66 380.99"/>
            <polygon class="cls-14" points="96.47 380.06 81.79 401.61 80.66 380.99 96.47 380.06"/>
            <polygon class="cls-28" points="100.91 389.77 121.09 400.33 81.79 401.61 81.06 390.85 100.91 389.77"/>
            <polygon class="cls-13" points="121.73 407.04 81.76 408.04 81.61 401.32 121.58 400.32 121.73 407.04"/>
            <g>
              <line class="cls-8" x1="103.34" y1="391.14" x2="99.03" y2="394.07"/>
              <line class="cls-8" x1="107.18" y1="393.06" x2="102.87" y2="395.99"/>
            </g>
          </g>
          <g>
            <polygon class="cls-15" points="36.36 380.79 39.59 402.66 .27 403.33 22.74 391.81 21.51 379.92 36.36 380.79"/>
            <polygon class="cls-14" points="21.51 379.92 36.36 380.79 39.59 402.66 21.51 379.92"/>
            <polygon class="cls-28" points="19.97 391.79 .27 403.33 39.59 402.66 38.19 391.44 19.97 391.79"/>
            <g>
              <line class="cls-8" x1="16.91" y1="393.29" x2="21.34" y2="396"/>
              <line class="cls-8" x1="13.15" y1="395.4" x2="17.58" y2="398.11"/>
            </g>
            <polygon class="cls-13" points="40.12 409.07 .15 410.07 0 403.35 39.97 402.35 40.12 409.07"/>
          </g>
          <g>
            <path class="cls-18" d="M38.49,151.03l34.38,3.46s13.11-13.1,28.91,225.12l-21.95,1.57-26.65-167.23c-.66-2.42-4.03-1.83-3.93,.68l-7.44,167.7-23.06-1.27s-11.83-168.76-1.63-196.04c10.2-27.28,21.38-33.99,21.38-33.99Z"/>
            <g>
              <path class="cls-10" d="M18.43,181.67s13.97,5.89,21.24-7.21c7.26-13.1,9.2-20.28,9.2-20.28"/>
              <path class="cls-10" d="M63.85,154.72s-.69,29.4,7.55,32.1c8.24,2.69,12.21,2.15,12.21,2.15"/>
              <line class="cls-9" x1="71.4" y1="186.81" x2="94.57" y2="379.76"/>
              <line class="cls-9" x1="26.84" y1="182.8" x2="27.99" y2="381.44"/>
            </g>
            <path class="cls-32" d="M86.05,203.73l-48.41-51.7s-27.08,17.78-24.08,77.97l72.49-26.27Z"/>
          </g>
        </g>
        <g>
          <path class="cls-19" d="M44.49,48.4s-11.9-1.74-11.32,6.97c.58,8.71,5.81,6.97,5.81,6.97,0,0-2.32,8.13,4.93,6.1,7.26-2.03,7.84-9,7.55-11.9-.29-2.9-6.97-8.13-6.97-8.13Z"/>
          <path class="cls-19" d="M37.68,50.68s-15.91-21.6,5.51-32.69c21.42-11.09,27.47,12.1,27.47,15.12s-1.01,41.58-24.45,27.47l-8.54-9.9Z"/>
          <g>
            <path class="cls-15" d="M61.55,50.26s6.5,31.02,7.04,33.16c0,0-18.34,42.16-24.17-.29,0,0,1.97-7.93,4.15-25.11l12.98-7.76Z"/>
            <path class="cls-23" d="M60.59,30.17h0c-5.71-1.15-10.98,5.6-12.81,14.61l-.14,.69c-1.83,9.01,2.01,20.29,9.48,18.58,4.54-1.04,5.77-7.66,6.14-12.95l4.23-2.59c1.83-9.01-1.2-17.19-6.91-18.34Z"/>
          </g>
          <g>
            <path class="cls-15" d="M38.7,47.97l4.53-1.53-1.72-5.04-4.53,1.53c-1.4,.47-2.14,1.98-1.67,3.37h0c.47,1.39,1.99,2.14,3.39,1.66Z"/>
            <path class="cls-15" d="M69.48,38.88l-4.6,1.31,1.46,5.12,4.6-1.31c1.42-.4,2.24-1.87,1.84-3.29h0c-.4-1.41-1.88-2.23-3.3-1.83Z"/>
            <path class="cls-21" d="M70.06,40.19l-1.9,.54,.76,2.67,1.9-.54c.59-.17,.89-.9,.68-1.63h0c-.21-.74-.85-1.2-1.44-1.03Z"/>
            <path class="cls-21" d="M37.44,44.12l2.06-.74,.97,2.69-2.06,.74c-.63,.23-1.37-.19-1.63-.93h0c-.27-.74,.03-1.53,.67-1.75Z"/>
            <path class="cls-15" d="M49.78,26.84h0c-8.65,2.04-12.69,10.36-10.7,18.74l.15,.64c1.99,8.39,12.38,15.77,17.67,13.69l.19-.09c5.67-1.7,13.9-12.44,11.91-20.83l-.15-.64c-1.99-8.38-10.42-13.54-19.07-11.51Z"/>
            <path class="cls-14" d="M59.8,44.58c-1.48,1.48-1.48,3.87,0,5.35,1.48,1.48,3.87,1.48,5.35,0,1.48-1.48,1.48-3.87,0-5.35-1.48-1.48-3.87-1.48-5.35,0Z"/>
            <path class="cls-14" d="M43.35,46.56c-1.48,1.48-1.48,3.87,0,5.35,1.48,1.48,3.87,1.48,5.35,0,1.48-1.48,1.48-3.87,0-5.35-1.48-1.48-3.87-1.48-5.35,0Z"/>
            <g>
              <path class="cls-29" d="M50.85,38.08c.57,0-.57-1.31-2-1.12-1.43,.19-3.97,3.06-3.97,3.06,0,0,3.98-1.94,5.97-1.94Z"/>
              <path class="cls-29" d="M56.42,37.23c-.37,.07,.05-1.3,.64-1.37,.58-.08,3.53-.26,5.17,1.7,0,0-3.16-.8-5.8-.32Z"/>
              <path class="cls-20" d="M58.64,48.34c-.22,0-8.13,1.1-8.27,1.05-.14-.04,2.68,3.71,4.82,3.58,2.14-.13,3.45-4.64,3.45-4.64Z"/>
              <path class="cls-16" d="M55.68,48.4l-1.96,.22c-.38,.04-.68-.32-.56-.68l.18-5.37c.14-.43,.71-.5,.95-.12l1.77,5.15c.2,.33,0,.76-.39,.8Z"/>
              <path class="cls-29" d="M49.61,43.97c.17,.66,.61,1.11,.98,1.02s.54-.71,.38-1.36c-.17-.66-.61-1.11-.98-1.02-.38,.1-.54,.71-.38,1.36Z"/>
              <path class="cls-29" d="M56.95,42.84c.03,.68,.37,1.21,.76,1.19,.39-.02,.68-.58,.64-1.26-.03-.68-.37-1.21-.76-1.19-.39,.02-.68,.58-.64,1.26Z"/>
            </g>
          </g>
          <path class="cls-19" d="M38,41.7c.25,0,5.9-.25,9.14-13.88,0,0,9.39,5.82,21.7,10.54,0,0-.31-18.99-15.05-18.19-19.87,1.08-15.8,21.53-15.8,21.53Z"/>
        </g>
        <path class="cls-1" d="M38.17,42.11s8.92,8.29,12.14,6.4c3.21-1.89,2.2-4.65,8.06-1.91,5.86,2.74,11.12-7.72,11.12-7.72,0,0-2.19,5.07-.4,5.54,0,0-5.39,16.73-13.33,15.88-7.94-.85-12.1-5.1-16.35-12.57,0,0,4.61,2.42-1.24-5.61Z"/>
        <g>
          <g>
            <path class="cls-18" d="M45.37,77.25l7.98,15.52,14.19-16.18,10.2,5.1c9.68,1.77,10.47,12.28,8.65,21.95l-.67,49.44s4.11,41.01,4.32,49.99l-80.14-.33,10.98-100.25c3.2-13.04,6.33-21.39,17.44-23.05l7.05-2.18Z"/>
            <path class="cls-31" d="M86.38,103.63c.83-4.41,1.11-8.98,.26-12.83-25.72,35.75-48.83,73.26-69.82,111.96l73.22,.3c-.21-8.99-4.32-49.99-4.32-49.99l.67-49.44Z"/>
          </g>
          <rect class="cls-12" x="24.53" y="110.95" width="14.85" height="4.43"/>
          <polyline class="cls-12" points="43.38 77.25 52.69 96.98 70.2 78.14"/>
        </g>
        <g>
          <g>
            <rect class="cls-26" x="86.44" y="139.93" width="4.01" height="4.01" transform="translate(-33.64 27.63) rotate(-14.96)"/>
            <path class="cls-7" d="M82.78,118.59l-3.33,.45c-.57,.08-1.1-.32-1.18-.9h0c-.08-.57,.32-1.09,.9-1.17l4.13-.56c.57-.08,1.1,.32,1.18,.9l.04,.29c.08,.57-.31,1.16-.89,1.24l-.77,.1"/>
            <rect class="cls-27" x="51.97" y="112.81" width="18.06" height="4.59" rx="1.51" ry="1.51" transform="translate(-27.64 19.64) rotate(-14.96)"/>
            <path class="cls-30" d="M59.66,110.37l-.4,.11c-1.65,.44-2.63,2.13-2.19,3.78l.02,.06,6.37-1.7-.02-.06c-.44-1.65-2.13-2.63-3.78-2.19Zm.38,2.23c-.36,.1-.73-.12-.82-.48-.1-.36,.12-.73,.48-.82,.36-.1,.73,.12,.82,.48,.1,.36-.12,.73-.48,.82Z"/>
            <rect class="cls-25" x="47.2" y="112.97" width="41.85" height="57.66" rx="1.87" ry="1.87" transform="translate(-34.29 22.39) rotate(-14.96)"/>
            <rect class="cls-30" x="55.94" y="115.64" width="11.37" height="3.63" transform="translate(-28.23 19.88) rotate(-14.96)"/>
            <path class="cls-26" d="M53.47,112.81h15.04c.83,0,1.51,.68,1.51,1.51v3.08h-18.06v-3.08c0-.83,.68-1.51,1.51-1.51Z" transform="translate(-27.64 19.64) rotate(-14.96)"/>
          </g>
          <path class="cls-15" d="M122.55,132.11l-.73-1.15,.37-.24c-7.27-12.59-15.7-26.14-24.5-38.29-15.58-18.1-22.83-10.04-24.53-7.02-3.37,8.98,10.33,21.79,15.32,29.56,2.62,4.07,5.38,8.1,9,13.26-7.02,2.36-15.42,4.99-26.6,7.49-15.13-1.08-16.64-2.3-19.07-1.44,0,0-3.54-.54-1.98,.81,.4,.35,8.56,2.62,8.05,2.87-.51,.25-15.3,3.38-14.71,4.74,.59,1.36,9.6-.31,9.89,.37,.3,.68-9.37,1.3-9.22,2.6,.15,1.3,9.89,.37,9.75,.99-.14,.62-9.23,.68-9,1.67,.22,.99,9.89,.37,10.26,.74,.37,.37-8.72,.43-9,1.67-.22,.93,8.45,.91,11.19,.56,9.53-1.23,14.67-3.07,16.87-3.6,2.44,.07,21.57-1.21,43.12-3.88,5.57-.69,8.53-6.96,5.52-11.7Z"/>
          <path class="cls-18" d="M109.59,109.96c-3.84-5.99-5.82-11.34-9.9-16.97-15.58-18.1-28.22-13.32-29.93-10.31-3.12,8.32,17.29,36.91,16.63,35.91,7.49-.74,15.78-7.35,23.2-8.64Z"/>
        </g>
        <g>
          <path class="cls-17" d="M151.11,206.77c.4,2.85,.69,4.56,.69,4.56,0,0,3.2,16.25,13.27,24.29,1.48,1.18-3.15-2.47-3.15-2.47,0,0,6.55,5.14,7.81,5.33,1.25,.19-5.13-5.84-5.13-5.84,0,0,6.98,6.38,8.26,5.87,1.28-.51-5.13-8.42-5.13-8.42,0,0,5.92,7.34,7.24,6.93,1.47-.46-8.28-21.38-4.85-19.42,1.14,.65,6.88,5.87,8.64,4.89,1.77-.98-9.46-13.59-9.46-13.59,0,0-.65-5.6-.61-6.12l-17.58,3.99Z"/>
          <g>
            <g>
              <polygon class="cls-17" points="237.97 384.71 243.66 409.46 281.53 409.46 281.53 406.47 260 393.96 257.36 385.16 237.97 384.71"/>
              <polygon class="cls-24" points="249.23 385.16 243.66 409.46 237.97 384.71 249.23 385.16"/>
              <path class="cls-2" d="M260.27,393.96l-6.41,6.86c-1.69,1.8-4.35,1.86-6.1,.13l-7.29-7.26,3.47,15.77h37.87v-2.99l-21.53-12.51Z"/>
            </g>
            <g>
              <polygon class="cls-17" points="186.03 384.44 180.33 409.19 142.46 409.19 142.46 406.2 164 393.69 165.65 384.89 186.03 384.44"/>
              <polygon class="cls-24" points="174.05 384.6 186.03 384.44 180.33 409.19 174.05 384.6"/>
              <path class="cls-2" d="M163.58,393.69l6.41,6.86c1.69,1.8,4.35,1.86,6.1,.13l7.29-7.26-3.47,15.77h-37.87v-2.99l21.53-12.51Z"/>
            </g>
            <path class="cls-4" d="M238.65,184.15l20.87,205.8-20.78,.33-29.43-154.63c-2.09-4.87-4.59-2.05-5.07,.58l-19.21,153.88-20.45-1.5s-2.05-111.69,7.09-205.91l66.98,1.44Z"/>
          </g>
          <g>
            <g>
              <path class="cls-28" d="M252.12,119.16c-6.27,34.88-9.05,66.19-9.05,66.19l-74.68-1.2-6.79-106.07c9.19-8.07,21.9-12.56,31.23-12.9l23.55-.67s12.1,1.69,22.46,3.44c8.75,1.47,12.49,5.04,17.01,12.68"/>
              <polyline class="cls-34" points="243.07 185.36 168.39 184.15 161.6 78.09"/>
            </g>
            <path class="cls-28" d="M177.44,125.61c-.68-.68-5.05,88.77-7.24,87.81l-19.84-1.07s-.98-73.61,3.09-112.54c0,0,3.17-21.73,11.77-23.99,8.6-2.26,12.22,49.79,12.22,49.79Z"/>
            <path class="cls-13" d="M177.44,125.61c-.68-.68-4.14,82.43-6.34,81.47l-25.35-4.07s3.62-64.27,7.69-103.2c0,0,3.17-21.73,11.77-23.99,8.6-2.26,12.22,49.79,12.22,49.79Z"/>
            <g>
              <g>
                <path class="cls-17" d="M215.72,40.94l4.49,24.93-14.26,6.79s-9.11-1.35-13.35-6.34l2.41-24.61,20.7-.77Z"/>
                <path class="cls-28" d="M213.79,18.11l2.55,24.36s-11.06,27.47-22.12,.68l5.15-25.74,14.41,.7Z"/>
              </g>
              <g>
                <g>
                  <g>
                    <path class="cls-11" d="M188.46,28.73l4.21-1.19,.98,5.02-4.21,1.19c-1.3,.37-2.57-.46-2.84-1.85h0c-.27-1.39,.56-2.8,1.86-3.17Z"/>
                    <path class="cls-24" d="M188.83,30l1.74-.49,.4,2.07-1.74,.49c-.54,.15-1.06-.19-1.17-.76h0c-.11-.57,.23-1.16,.77-1.31Z"/>
                  </g>
                  <g>
                    <path class="cls-11" d="M221.7,27.39l-4.29,.58-.35-5.15,4.29-.58c1.32-.18,2.47,.83,2.57,2.25h0c.1,1.42-.89,2.72-2.21,2.9Z"/>
                    <path class="cls-24" d="M221.53,23.89l-1.77,.21,.11,2.13,1.77-.21c.55-.06,.96-.59,.93-1.18h0c-.03-.59-.5-1.01-1.04-.95Z"/>
                  </g>
                  <path class="cls-11" d="M205.42,46.41l-.09,.02c-10.12,.43-14.41-6.38-14.58-15v-.66c-.18-8.62,4.5-22.4,12.48-23.03l-.02-.09c7.98-.63,16.28,12.23,16.45,20.84v.66c.18,8.62-2.88,16.52-14.23,17.25Z"/>
                </g>
                <g>
                  <path class="cls-20" d="M206.17,40.78h-.01c-3.51,.32-6.43-1.89-6.51-4.92v-.42s12.73-1.14,12.73-1.14v.42c.09,3.03-2.69,5.75-6.2,6.06Z"/>
                  <path class="cls-28" d="M202.34,27.96c0,.63-.37,1.14-.83,1.14-.46,0-.84-.51-.84-1.14,0-.63,.37-1.14,.83-1.14,.46,0,.84,.51,.84,1.14Z"/>
                  <path class="cls-28" d="M209.84,27.15c0,.63-.38,1.14-.84,1.14-.46,0-.83-.52-.83-1.15,0-.63,.38-1.14,.84-1.14,.46,0,.83,.52,.83,1.15Z"/>
                  <path class="cls-24" d="M207.13,32.61l-2.96,.16c-.36,.02-.63-.43-.5-.84l1.15-3.7c.15-.47,.67-.52,.89-.09l1.81,3.54c.2,.4-.01,.91-.39,.93Z"/>
                  <path class="cls-28" d="M197.58,24.76c-.82,.71,.26-2.2,1.43-2.64,1.18-.45,2.44,.02,2.82,1.03,0,0-2.28-.09-4.26,1.61Z"/>
                  <path class="cls-28" d="M211.31,22.51c.96,.51-.75-2.08-2-2.25-1.25-.17-2.37,.57-2.52,1.65,0,0,2.2-.61,4.51,.6Z"/>
                </g>
                <path class="cls-28" d="M217.44,12.33c-.1-.22-.2-.44-.3-.64,1.03-.47,2.86-12.13,.94-11.67-23.67,5.77-22.25-5.2-29.58,12.26-.16,.37-.12,.74,.04,1.08-.13,.28-.25,.56-.36,.85-.79,2.15-.9,4.51-.58,6.73,.15,1.06,2.07,7.12,3.06,7.21,.45,.04,2.86-7.79,4.3-12.1,2.41,.31,5.25,.33,8.09-.05,3.24-.43,6.47-1.38,9.17-2.34,2.03,2.74,6.32,8.21,7.03,8.24,.69,.03-1.17-8.1-1.8-9.58Z"/>
              </g>
            </g>
            <g>
              <polygon class="cls-28" points="188.64 64.85 193.05 57.04 206.29 72.32 200.07 85.33 188.64 64.85"/>
              <polygon class="cls-28" points="223.49 64.85 219.08 57.04 205.84 72.32 213.2 85.11 223.49 64.85"/>
            </g>
            <path class="cls-22" d="M190.65,28.16s7.93,4.8,11.04,4.08c3.11-.72,3.11-2.75,7.18-.84s10.38-9.5,10.38-9.5c0,0-2.13,6.39,1.34,6.27,0,0-1.55,17.82-13.04,19.02-11.63,1.21-17.22-12.68-17.22-12.68,0,0,1.6-.6,1.91-2.53,.31-1.93-1.59-3.83-1.59-3.83"/>
            <path class="cls-13" d="M191.7,60.21c-2.49,.45,4.75,173.35,4.75,173.35l-35.3,.68,1.05-149.63c-.08-8.95,5.79-16.86,14.38-19.37l15.13-5.03Z"/>
            <polygon class="cls-13" points="219.98 57.72 215.46 230.17 253.48 230.17 249.86 69.94 219.98 57.72"/>
            <g>
              <polyline class="cls-6" points="187.4 62.02 179.7 85.56 185.81 90.31 181.06 101.17 192.83 147.34"/>
              <polyline class="cls-6" points="226.09 59.99 231.07 81.03 224.74 87.82 229.72 94.84 218.17 146.66"/>
              <rect class="cls-3" x="228.13" y="114.1" width="14.48" height="2.68"/>
            </g>
          </g>
          <g>
            <g>
              <rect class="cls-26" x="257.18" y="186.77" width="4.1" height="4.1" transform="translate(-35.01 316.4) rotate(-59.51)"/>
              <rect class="cls-27" x="210.82" y="186.62" width="18.43" height="4.68" rx="1.54" ry="1.54" transform="translate(-54.44 282.7) rotate(-59.51)"/>
              <path class="cls-30" d="M215.67,186.47l-.22,.37c-.88,1.5-.38,3.43,1.12,4.32l.06,.03,3.41-5.8-.06-.03c-1.5-.88-3.43-.38-4.32,1.12Zm1.87,1.35c-.19,.33-.61,.44-.94,.24-.33-.19-.44-.61-.24-.94,.19-.33,.61-.44,.94-.24,.33,.19,.44,.61,.24,.94Z"/>
              <rect class="cls-18" x="222.99" y="173.84" width="42.72" height="58.86" rx="1.91" ry="1.91" transform="translate(-54.8 310.7) rotate(-59.51)"/>
              <rect class="cls-30" x="216.38" y="188.37" width="11.61" height="3.71" transform="translate(-54.47 285.17) rotate(-59.51)"/>
              <path class="cls-26" d="M212.36,186.62h15.35c.85,0,1.54,.69,1.54,1.54v3.14h-18.43v-3.14c0-.85,.69-1.54,1.54-1.54Z" transform="translate(-54.44 282.7) rotate(-59.51)"/>
            </g>
            <path class="cls-17" d="M263.25,205.41c-.4,2.85-.69,4.56-.69,4.56,0,0-3.2,16.25-13.27,24.29-1.48,1.18,3.15-2.47,3.15-2.47,0,0-6.55,5.14-7.81,5.33-1.25,.19,5.13-5.84,5.13-5.84,0,0-6.98,6.38-8.26,5.87-1.28-.52,5.13-8.42,5.13-8.42,0,0-5.92,7.34-7.24,6.93-1.47-.46,8.28-21.38,4.85-19.42-1.14,.65-6.88,5.87-8.64,4.89-1.77-.98,9.46-13.59,9.46-13.59,0,0,.65-5.6,.61-6.12l17.58,3.99Z"/>
            <path class="cls-28" d="M238.57,93.53c-.74,4.88-.34,9.86,1.17,14.55,2.86,8.86,7.55,25.15,8.18,35.22,1.65,26.15-5.05,64.4-3.64,63.78l19.72,5.43s9.52-36.32,8.83-67.21c-.42-18.78-14.97-73.55-23.56-75.81-5.84-1.54-9.16,13.95-10.69,24.04Z"/>
            <path class="cls-2" d="M238.57,93.53c-.74,4.88-.34,9.86,1.17,14.55,2.86,8.86,7.55,25.15,8.18,35.22,1.65,26.15-7.74,55.35-6.33,54.73l29.87,5.43s7.03-29.76,6.34-60.65c-.42-18.78-19.94-71.06-28.54-73.32-5.84-1.54-9.16,13.95-10.69,24.04Z"/>
          </g>
          <g>
            <g>
              <path class="cls-25" d="M196.56,105.93c0-3.12-2.53-5.66-5.66-5.66s-5.66,2.53-5.66,5.66,2.53,5.66,5.66,5.66,5.66-2.53,5.66-5.66Z"/>
              <circle class="cls-28" cx="190.9" cy="105.93" r="3.05"/>
            </g>
            <g>
              <path class="cls-5" d="M210.08,124.3l-.38-.61c-.81-1.29-1.08-2.85-.76-4.34l4.38-19.89c1.12-5.07,6.13-8.27,11.19-7.15h0c5.07,1.12,8.27,6.13,7.15,11.19l-4.35,19.75c-.35,1.57-1.33,2.92-2.71,3.74l-.4,.24"/>
              <path class="cls-25" d="M211.69,124.22l-2.27,1.45h0c-.35-.55-.19-1.29,.36-1.64l.27-.17c.55-.35,1.29-.19,1.64,.36h0Z"/>
              <path class="cls-25" d="M224.1,128.91l-1.45-2.27h0c.55-.35,1.29-.19,1.64,.36l.17,.27c.35,.55,.19,1.29-.36,1.64h0Z"/>
            </g>
            <path class="cls-5" d="M193.39,56.59s-8.83,1.58-7.13,17.2c1.7,15.62,3.73,27.16,3.73,27.16"/>
            <path class="cls-5" d="M218.06,54.21s15.95-2.15,7.02,37.91"/>
          </g>
        </g>
      </g>
    </g>
  </g>
</svg>